<mxfile host="app.diagrams.net" modified="2024-05-10T22:53:25.680Z" agent="Mozilla/5.0 (Windows NT 10.0; Win64; x64) AppleWebKit/537.36 (KHTML, like Gecko) Chrome/126.0.0.0 Safari/537.36" version="24.4.0" etag="-E4c50E8W6SQfrT9eqhB" type="github">
  <diagram name="Page-1" id="yyTfDgGqUzXly7qFy7lc">
    <mxGraphModel>
      <root>
        <mxCell id="0" />
        <mxCell id="1" parent="0" />
      </root>
    </mxGraphModel>
  </diagram>
</mxfile>
